<?xml version="1.0" encoding="iso-8859-1"?>
<!-- Generator: Adobe Illustrator 19.0.0, SVG Export Plug-In . SVG Version: 6.00 Build 0)  -->
<svg version="1.1" id="Capa_1" xmlns="http://www.w3.org/2000/svg" xmlns:xlink="http://www.w3.org/1999/xlink" x="0px" y="0px"
	 viewBox="0 0 512 512" style="enable-background:new 0 0 512 512;" xml:space="preserve">
<g>
	<g>
		<path d="M119.005,37.58c-8.285-2.575-17.084,2.054-19.659,10.338L45.888,219.944c-1.237,3.978-0.842,8.284,1.097,11.971
			c1.939,3.687,5.263,6.452,9.241,7.689l277.317,86.176L511.12,159.43L119.005,37.58z"/>
	</g>
</g>
<g>
	<g>
		<path d="M500.951,219.155l-5.737-1.783l-103.389,96.852l72.576,22.553c1.523,0.473,3.094,0.708,4.661,0.708
			c2.523,0,5.035-0.608,7.31-1.805c3.687-1.939,6.452-5.263,7.689-9.241l27.229-87.624
			C513.863,230.531,509.235,221.729,500.951,219.155z"/>
	</g>
</g>
<g>
	<g>
		<path d="M174.769,309.335l-3.584,11.535c-2.574,8.284,2.054,17.085,10.338,19.659l89.811,27.909
			c1.523,0.473,3.094,0.708,4.661,0.708c2.523,0,5.035-0.608,7.31-1.805c3.687-1.939,6.452-5.263,7.689-9.241l3.584-11.536
			L174.769,309.335z"/>
	</g>
</g>
<g>
	<g>
		<path d="M204.304,380.504l-1.115,4.018H91.142c-3.205-32.242-30.483-57.507-63.554-57.507H15.706
			C7.032,327.014,0,334.047,0,342.721v116.706c0,8.674,7.032,15.706,15.706,15.706h11.882c33.646,0,61.279-26.155,63.683-59.198
			h123.857c7.056,0,13.246-4.706,15.134-11.504l4.053-14.6L204.304,380.504z"/>
	</g>
</g>
<g>
</g>
<g>
</g>
<g>
</g>
<g>
</g>
<g>
</g>
<g>
</g>
<g>
</g>
<g>
</g>
<g>
</g>
<g>
</g>
<g>
</g>
<g>
</g>
<g>
</g>
<g>
</g>
<g>
</g>
</svg>
